IKResults
version=1
nRows=11
nColumns=42
inDegrees=yes

Units are S.I. units (second, meters, Newtons, ...)
Angles are in degrees.

endheader
time	pelvis_tilt	pelvis_list	pelvis_rotation	pelvis_tx	pelvis_ty	pelvis_tz	hip_flexion_r	hip_adduction_r	hip_rotation_r	knee_angle_r	knee_adduction_r	knee_angle_r_beta	ankle_angle_r	subtalar_angle_r	mtp_angle_r	hip_flexion_l	hip_adduction_l	hip_rotation_l	knee_angle_l	knee_adduction_l	knee_angle_l_beta	ankle_angle_l	subtalar_angle_l	mtp_angle_l	lumbar_extension	lumbar_bending	lumbar_rotation	arm_flex_r	arm_add_r	arm_rot_r	elbow_flex_r	pro_sup_r	wrist_flex_r	wrist_dev_r	arm_flex_l	arm_add_l	arm_rot_l	elbow_flex_l	pro_sup_l	wrist_flex_l	wrist_dev_l
      3.84832900	     -0.07110695	     -0.70043471	      5.14690962	      0.61967151	      0.96272571	      0.03725374	      5.40816552	     -0.86163774	     -6.33751637	     12.22648515	      6.47602164	      0.21339242	      9.41980694	     -8.86482719	      6.24192197	     27.35424451	     -5.85268211	      7.46527517	    100.80867011	      5.09547410	      1.75944321	     10.74287738	     -9.31597329	      4.07165933	    -17.66529818	      2.87431189	     -6.93380130	      2.89260045	    -23.90311512	      0.32237126	     75.00017572	     45.00000026	      0.00000000	      0.00000000	      0.19605565	    -24.02545972	      0.56525431	     75.00017572	     45.00000026	      0.00000000	      0.00000000
      3.85498701	      0.15150886	     -0.63378168	      5.26800463	      0.61952907	      0.96307627	      0.03713513	      5.12333691	     -0.92671943	     -6.53934714	     12.17805934	      6.47602164	      0.21254723	      9.41589602	     -8.81023903	      6.26442605	     27.09687764	     -5.73740596	      7.54435535	    100.63706088	      5.09547410	      1.75644806	     10.72991624	     -9.32436021	      4.07400476	    -17.95201847	      2.85087518	     -7.07602469	      2.97173943	    -23.88699430	      0.33000448	     75.00017573	     45.00000026	      0.00000000	      0.00000000	      0.23335018	    -24.04611835	      0.57194028	     75.00017573	     45.00000026	      0.00000000	      0.00000000
      3.86164502	      0.06080466	     -0.67176502	      5.20416015	      0.61943077	      0.96294376	      0.03719258	      5.25209028	     -0.89179764	     -6.44988305	     12.18860495	      6.47602164	      0.21273129	      9.31330823	     -8.85116747	      5.98819975	     27.19558356	     -5.79252829	      7.49885159	    100.51240939	      5.09547410	      1.75427248	     10.69928066	     -9.32129090	      3.91640287	    -17.85283534	      2.87842065	     -7.01404158	      2.96823059	    -23.90546943	      0.33002439	     75.00017573	     45.00000026	      0.00000000	      0.00000000	      0.22332443	    -24.00878993	      0.56800351	     75.00017573	     45.00000026	      0.00000000	      0.00000000
      3.86830303	     -0.09489522	     -0.65009104	      5.11888278	      0.61933527	      0.96270824	      0.03731013	      5.47458838	     -0.92644072	     -6.36298380	     12.26274573	      6.47602164	      0.21402529	      9.29706353	     -8.83705511	      5.65631435	     27.35275893	     -5.78757362	      7.40688888	    100.35149672	      5.09547410	      1.75146403	     10.58042351	     -9.34138007	      3.72060900	    -17.66491401	      2.82082351	     -6.93932736	      2.97593758	    -23.91816893	      0.33162316	     75.00017574	     45.00000026	      0.00000000	      0.00000000	      0.23943353	    -24.02925748	      0.57308411	     75.00017574	     45.00000026	      0.00000000	      0.00000000
      3.87496104	      0.19856920	     -0.59800388	      5.20751039	      0.61921457	      0.96316330	      0.03726596	      5.10402006	     -0.95326850	     -6.47293761	     12.18659520	      6.47602164	      0.21269621	      9.39144262	     -8.82328077	      6.24798602	     26.99827110	     -5.71658449	      7.44809506	    100.11484059	      5.09547410	      1.74733360	     10.76430826	     -9.32784675	      4.24008509	    -18.04272266	      2.81097547	     -7.04157075	      3.04381067	    -23.89792743	      0.34422460	     75.00017574	     45.00000026	      0.00000000	      0.00000000	      0.26584210	    -24.06861568	      0.57941336	     75.00017574	     45.00000026	      0.00000000	      0.00000000
      3.88161905	      0.05723124	     -0.65560206	      5.17705607	      0.61915254	      0.96294454	      0.03731377	      5.28205136	     -0.90174370	     -6.42263325	     12.19515591	      6.47602164	      0.21284562	      9.29976426	     -8.84999666	      5.97791511	     27.16795814	     -5.77461043	      7.43527004	     99.95131478	      5.09547410	      1.74447953	     10.71695347	     -9.32899374	      4.05760562	    -17.86798998	      2.86053644	     -7.00136425	      3.01586940	    -23.89252852	      0.34028969	     75.00017574	     45.00000026	      0.00000000	      0.00000000	      0.26819324	    -24.01667799	      0.57687686	     75.00017574	     45.00000026	      0.00000000	      0.00000000
      3.88827706	      0.08886317	     -0.67785585	      5.21007657	      0.61905631	      0.96295400	      0.03720098	      5.22738730	     -0.88298874	     -6.43853459	     12.13531104	      6.47602164	      0.21180113	      9.28747405	     -8.85237348	      5.92566903	     27.13722376	     -5.75012081	      7.48747548	     99.75454789	      5.09547410	      1.74104530	     10.78083745	     -9.33282050	      4.03048892	    -17.89816809	      2.90843076	     -7.00657872	      3.02647457	    -23.95525466	      0.34133129	     75.00017575	     45.00000026	      0.00000000	      0.00000000	      0.25548610	    -24.03123662	      0.57616842	     75.00017575	     45.00000026	      0.00000000	      0.00000000
      3.89493506	     -0.01205445	     -0.67300301	      5.15581302	      0.61900407	      0.96282899	      0.03738856	      5.37114460	     -0.88450342	     -6.37805954	     12.18787925	      6.47602164	      0.21271862	      9.25094949	     -8.85340670	      5.72116184	     27.23433488	     -5.78760691	      7.38930934	     99.51082400	      5.09547410	      1.73679152	     10.67479479	     -9.33407807	      3.93186009	    -17.78301192	      2.86587663	     -6.98441653	      3.03267703	    -23.91408761	      0.34393146	     75.00017575	     45.00000026	      0.00000000	      0.00000000	      0.27319434	    -24.03399410	      0.57997619	     75.00017575	     45.00000026	      0.00000000	      0.00000000
      3.90159307	     -0.05803474	     -0.68582631	      5.14343082	      0.61892165	      0.96276292	      0.03745961	      5.43697889	     -0.86906473	     -6.36977606	     12.19278617	      6.47602164	      0.21280426	      9.17464723	     -8.85480214	      5.53816519	     27.28606713	     -5.80133915	      7.37013903	     99.26499689	      5.09547410	      1.73250103	     10.60618976	     -9.34925349	      3.84885561	    -17.73574063	      2.86542070	     -6.97868233	      3.04088380	    -23.87953446	      0.34619106	     75.00017575	     45.00000026	      0.00000000	      0.00000000	      0.28922306	    -24.00671453	      0.58077447	     75.00017575	     45.00000026	      0.00000000	      0.00000000
      3.90825108	      0.25052066	     -0.66078490	      5.26297010	      0.61873379	      0.96320051	      0.03744931	      5.05942874	     -0.86462606	     -6.54425310	     12.12752982	      6.47602164	      0.21166533	      9.26442730	     -8.87002633	      6.09297379	     26.93963310	     -5.75231709	      7.44651114	     98.96985479	      5.09547410	      1.72734983	     10.79672190	     -9.33616933	      4.37324134	    -18.11233664	      2.88414297	     -7.09257955	      3.17530351	    -23.81199743	      0.37051588	     75.00017576	     45.00000026	      0.00000000	      0.00000000	      0.37432447	    -24.11373208	      0.60127469	     75.00017576	     45.00000026	      0.00000000	      0.00000000
      3.91490909	      0.05578213	     -0.69467312	      5.17997231	      0.61874628	      0.96291119	      0.03746254	      5.29801855	     -0.84562256	     -6.40036182	     12.14808067	      6.47602164	      0.21202401	      9.21451469	     -8.87453212	      5.84321701	     27.14708710	     -5.78787323	      7.36407289	     98.72226140	      5.09547410	      1.72302851	     10.76808405	     -9.33429799	      4.20922915	    -17.88335181	      2.89893623	     -7.00616847	      3.09165665	    -23.89443513	      0.35511679	     75.00017576	     45.00000026	      0.00000000	      0.00000000	      0.31912603	    -24.04081540	      0.58826822	     75.00017576	     45.00000026	      0.00000000	      0.00000000
